<mxfile host="Electron" agent="Mozilla/5.0 (Windows NT 10.0; Win64; x64) AppleWebKit/537.36 (KHTML, like Gecko) draw.io/25.0.2 Chrome/128.0.6613.186 Electron/32.2.5 Safari/537.36" version="25.0.2">
  <diagram name="Страница — 1" id="Mo7JAeXhfFYFKT6jwJY9">
    <mxGraphModel dx="1687" dy="993" grid="1" gridSize="10" guides="1" tooltips="1" connect="1" arrows="1" fold="1" page="1" pageScale="1" pageWidth="827" pageHeight="1169" math="0" shadow="0">
      <root>
        <mxCell id="0" />
        <mxCell id="1" parent="0" />
        <mxCell id="5pMZYuSauzQ19LcZieeh-40" style="edgeStyle=orthogonalEdgeStyle;rounded=0;orthogonalLoop=1;jettySize=auto;html=1;exitX=0.5;exitY=1;exitDx=0;exitDy=0;entryX=1;entryY=0.583;entryDx=0;entryDy=0;entryPerimeter=0;" edge="1" parent="1" source="5pMZYuSauzQ19LcZieeh-9" target="5pMZYuSauzQ19LcZieeh-62">
          <mxGeometry relative="1" as="geometry" />
        </mxCell>
        <mxCell id="5pMZYuSauzQ19LcZieeh-42" value="Code,&lt;br&gt;&lt;span style=&quot;font-size: 12px; text-wrap: wrap; background-color: rgb(251, 251, 251);&quot;&gt;finalDotDur,&amp;nbsp;&lt;br&gt;&lt;/span&gt;&lt;span style=&quot;font-size: 12px; text-wrap: wrap; background-color: rgb(251, 251, 251);&quot;&gt;finalDotDmg&lt;/span&gt;&lt;span style=&quot;font-size: 12px; text-wrap: wrap; background-color: rgb(251, 251, 251);&quot;&gt;&lt;br&gt;&lt;/span&gt;" style="edgeLabel;html=1;align=center;verticalAlign=middle;resizable=0;points=[];" vertex="1" connectable="0" parent="5pMZYuSauzQ19LcZieeh-40">
          <mxGeometry x="-0.2485" y="-2" relative="1" as="geometry">
            <mxPoint x="-24" as="offset" />
          </mxGeometry>
        </mxCell>
        <mxCell id="5pMZYuSauzQ19LcZieeh-65" style="edgeStyle=orthogonalEdgeStyle;rounded=0;orthogonalLoop=1;jettySize=auto;html=1;exitX=0;exitY=0.75;exitDx=0;exitDy=0;entryX=0.5;entryY=0;entryDx=0;entryDy=0;" edge="1" parent="1" source="5pMZYuSauzQ19LcZieeh-9" target="5pMZYuSauzQ19LcZieeh-64">
          <mxGeometry relative="1" as="geometry" />
        </mxCell>
        <mxCell id="5pMZYuSauzQ19LcZieeh-66" value="Все с type = 0" style="edgeLabel;html=1;align=center;verticalAlign=middle;resizable=0;points=[];" vertex="1" connectable="0" parent="5pMZYuSauzQ19LcZieeh-65">
          <mxGeometry x="-0.2293" y="2" relative="1" as="geometry">
            <mxPoint as="offset" />
          </mxGeometry>
        </mxCell>
        <mxCell id="5pMZYuSauzQ19LcZieeh-9" value="&lt;span style=&quot;font-weight: 400;&quot;&gt;Улучшаемые характеристики&lt;/span&gt;" style="swimlane;whiteSpace=wrap;html=1;" vertex="1" parent="1">
          <mxGeometry x="360" y="40" width="240" height="470" as="geometry" />
        </mxCell>
        <mxCell id="5pMZYuSauzQ19LcZieeh-20" value="сode" style="rounded=0;whiteSpace=wrap;html=1;" vertex="1" parent="5pMZYuSauzQ19LcZieeh-9">
          <mxGeometry x="14" y="30" width="80" height="60" as="geometry" />
        </mxCell>
        <mxCell id="5pMZYuSauzQ19LcZieeh-21" value="nameRu" style="rounded=0;whiteSpace=wrap;html=1;" vertex="1" parent="5pMZYuSauzQ19LcZieeh-9">
          <mxGeometry x="100" y="30" width="80" height="60" as="geometry" />
        </mxCell>
        <mxCell id="5pMZYuSauzQ19LcZieeh-22" value="upgradeAmount" style="rounded=0;whiteSpace=wrap;html=1;" vertex="1" parent="5pMZYuSauzQ19LcZieeh-9">
          <mxGeometry x="14" y="90" width="120" height="60" as="geometry" />
        </mxCell>
        <mxCell id="5pMZYuSauzQ19LcZieeh-23" value="dmgUpgradeAmount" style="rounded=0;whiteSpace=wrap;html=1;" vertex="1" parent="5pMZYuSauzQ19LcZieeh-9">
          <mxGeometry x="20" y="150" width="120" height="60" as="geometry" />
        </mxCell>
        <mxCell id="5pMZYuSauzQ19LcZieeh-24" value="durationUpgradeAmount" style="rounded=0;whiteSpace=wrap;html=1;" vertex="1" parent="5pMZYuSauzQ19LcZieeh-9">
          <mxGeometry x="14" y="210" width="150" height="60" as="geometry" />
        </mxCell>
        <mxCell id="5pMZYuSauzQ19LcZieeh-25" value="finalDotDmg" style="rounded=0;whiteSpace=wrap;html=1;" vertex="1" parent="5pMZYuSauzQ19LcZieeh-9">
          <mxGeometry x="29" y="270" width="120" height="60" as="geometry" />
        </mxCell>
        <mxCell id="5pMZYuSauzQ19LcZieeh-26" value="finalDotDur" style="rounded=0;whiteSpace=wrap;html=1;" vertex="1" parent="5pMZYuSauzQ19LcZieeh-9">
          <mxGeometry x="20" y="330" width="120" height="60" as="geometry" />
        </mxCell>
        <mxCell id="5pMZYuSauzQ19LcZieeh-27" value="finalValue" style="rounded=0;whiteSpace=wrap;html=1;" vertex="1" parent="5pMZYuSauzQ19LcZieeh-9">
          <mxGeometry x="20" y="390" width="120" height="60" as="geometry" />
        </mxCell>
        <mxCell id="5pMZYuSauzQ19LcZieeh-30" value="type" style="rounded=0;whiteSpace=wrap;html=1;" vertex="1" parent="5pMZYuSauzQ19LcZieeh-9">
          <mxGeometry x="149" y="90" width="60" height="60" as="geometry" />
        </mxCell>
        <mxCell id="5pMZYuSauzQ19LcZieeh-31" style="edgeStyle=orthogonalEdgeStyle;rounded=0;orthogonalLoop=1;jettySize=auto;html=1;exitX=1;exitY=0.5;exitDx=0;exitDy=0;entryX=0;entryY=0.5;entryDx=0;entryDy=0;" edge="1" parent="1" source="5pMZYuSauzQ19LcZieeh-10" target="5pMZYuSauzQ19LcZieeh-9">
          <mxGeometry relative="1" as="geometry" />
        </mxCell>
        <mxCell id="5pMZYuSauzQ19LcZieeh-32" value="Все с &lt;br&gt;upgradable = 1" style="edgeLabel;html=1;align=center;verticalAlign=middle;resizable=0;points=[];" vertex="1" connectable="0" parent="5pMZYuSauzQ19LcZieeh-31">
          <mxGeometry x="-0.1273" y="3" relative="1" as="geometry">
            <mxPoint as="offset" />
          </mxGeometry>
        </mxCell>
        <mxCell id="5pMZYuSauzQ19LcZieeh-41" style="edgeStyle=orthogonalEdgeStyle;rounded=0;orthogonalLoop=1;jettySize=auto;html=1;exitX=0.5;exitY=1;exitDx=0;exitDy=0;entryX=0;entryY=0.5;entryDx=0;entryDy=0;" edge="1" parent="1" source="5pMZYuSauzQ19LcZieeh-10" target="5pMZYuSauzQ19LcZieeh-62">
          <mxGeometry relative="1" as="geometry" />
        </mxCell>
        <mxCell id="5pMZYuSauzQ19LcZieeh-43" value="&lt;span style=&quot;font-size: 12px; text-wrap: wrap; background-color: rgb(251, 251, 251);&quot;&gt;affectedChar,&lt;br&gt;&lt;/span&gt;&lt;span style=&quot;font-size: 12px; text-wrap: wrap; background-color: rgb(251, 251, 251);&quot;&gt;type&lt;/span&gt;&lt;span style=&quot;font-size: 12px; text-wrap: wrap; background-color: rgb(251, 251, 251);&quot;&gt;&lt;br&gt;&lt;/span&gt;" style="edgeLabel;html=1;align=center;verticalAlign=middle;resizable=0;points=[];" vertex="1" connectable="0" parent="5pMZYuSauzQ19LcZieeh-41">
          <mxGeometry x="0.3522" y="-1" relative="1" as="geometry">
            <mxPoint x="3" y="-16" as="offset" />
          </mxGeometry>
        </mxCell>
        <mxCell id="5pMZYuSauzQ19LcZieeh-10" value="&lt;span style=&quot;font-weight: 400;&quot;&gt;Справочник ДОТов&lt;/span&gt;" style="swimlane;whiteSpace=wrap;html=1;" vertex="1" parent="1">
          <mxGeometry x="20" y="105" width="230" height="340" as="geometry" />
        </mxCell>
        <mxCell id="5pMZYuSauzQ19LcZieeh-11" value="сode" style="rounded=0;whiteSpace=wrap;html=1;" vertex="1" parent="5pMZYuSauzQ19LcZieeh-10">
          <mxGeometry x="15" y="30" width="80" height="60" as="geometry" />
        </mxCell>
        <mxCell id="5pMZYuSauzQ19LcZieeh-12" value="nameRu" style="rounded=0;whiteSpace=wrap;html=1;" vertex="1" parent="5pMZYuSauzQ19LcZieeh-10">
          <mxGeometry x="120" y="30" width="80" height="60" as="geometry" />
        </mxCell>
        <mxCell id="5pMZYuSauzQ19LcZieeh-13" value="upgradeDotDmgX" style="rounded=0;whiteSpace=wrap;html=1;" vertex="1" parent="5pMZYuSauzQ19LcZieeh-10">
          <mxGeometry x="10" y="90" width="110" height="60" as="geometry" />
        </mxCell>
        <mxCell id="5pMZYuSauzQ19LcZieeh-14" value="upgradeDotDurX" style="rounded=0;whiteSpace=wrap;html=1;" vertex="1" parent="5pMZYuSauzQ19LcZieeh-10">
          <mxGeometry x="15" y="150" width="110" height="60" as="geometry" />
        </mxCell>
        <mxCell id="5pMZYuSauzQ19LcZieeh-15" value="baseDotDmg" style="rounded=0;whiteSpace=wrap;html=1;" vertex="1" parent="5pMZYuSauzQ19LcZieeh-10">
          <mxGeometry x="15" y="210" width="80" height="60" as="geometry" />
        </mxCell>
        <mxCell id="5pMZYuSauzQ19LcZieeh-16" value="baseDotDuration" style="rounded=0;whiteSpace=wrap;html=1;" vertex="1" parent="5pMZYuSauzQ19LcZieeh-10">
          <mxGeometry x="90" y="210" width="100" height="60" as="geometry" />
        </mxCell>
        <mxCell id="5pMZYuSauzQ19LcZieeh-17" value="affectedChar" style="rounded=0;whiteSpace=wrap;html=1;" vertex="1" parent="5pMZYuSauzQ19LcZieeh-10">
          <mxGeometry x="15" y="270" width="110" height="60" as="geometry" />
        </mxCell>
        <mxCell id="5pMZYuSauzQ19LcZieeh-18" value="type" style="rounded=0;whiteSpace=wrap;html=1;" vertex="1" parent="5pMZYuSauzQ19LcZieeh-10">
          <mxGeometry x="120" y="90" width="60" height="60" as="geometry" />
        </mxCell>
        <mxCell id="5pMZYuSauzQ19LcZieeh-19" value="upgradable" style="rounded=0;whiteSpace=wrap;html=1;" vertex="1" parent="5pMZYuSauzQ19LcZieeh-10">
          <mxGeometry x="120" y="150" width="80" height="60" as="geometry" />
        </mxCell>
        <mxCell id="5pMZYuSauzQ19LcZieeh-52" style="edgeStyle=orthogonalEdgeStyle;rounded=0;orthogonalLoop=1;jettySize=auto;html=1;exitX=1;exitY=0.5;exitDx=0;exitDy=0;entryX=0;entryY=0.5;entryDx=0;entryDy=0;" edge="1" parent="1" source="5pMZYuSauzQ19LcZieeh-33" target="5pMZYuSauzQ19LcZieeh-51">
          <mxGeometry relative="1" as="geometry" />
        </mxCell>
        <mxCell id="5pMZYuSauzQ19LcZieeh-33" value="usableDotsArray" style="swimlane;whiteSpace=wrap;html=1;" vertex="1" parent="1">
          <mxGeometry x="155" y="740" width="310" height="290" as="geometry" />
        </mxCell>
        <mxCell id="5pMZYuSauzQ19LcZieeh-34" value="объект ДОТа" style="swimlane;whiteSpace=wrap;html=1;startSize=23;" vertex="1" parent="5pMZYuSauzQ19LcZieeh-33">
          <mxGeometry x="14" y="40" width="286" height="240" as="geometry" />
        </mxCell>
        <mxCell id="5pMZYuSauzQ19LcZieeh-35" value="сode" style="rounded=0;whiteSpace=wrap;html=1;" vertex="1" parent="5pMZYuSauzQ19LcZieeh-34">
          <mxGeometry x="16" y="40" width="80" height="60" as="geometry" />
        </mxCell>
        <mxCell id="5pMZYuSauzQ19LcZieeh-36" value="affectedChar" style="rounded=0;whiteSpace=wrap;html=1;" vertex="1" parent="5pMZYuSauzQ19LcZieeh-34">
          <mxGeometry x="96" y="40" width="110" height="60" as="geometry" />
        </mxCell>
        <mxCell id="5pMZYuSauzQ19LcZieeh-37" value="type" style="rounded=0;whiteSpace=wrap;html=1;" vertex="1" parent="5pMZYuSauzQ19LcZieeh-34">
          <mxGeometry x="206" y="40" width="60" height="60" as="geometry" />
        </mxCell>
        <mxCell id="5pMZYuSauzQ19LcZieeh-38" value="finalDotDmg" style="rounded=0;whiteSpace=wrap;html=1;" vertex="1" parent="5pMZYuSauzQ19LcZieeh-34">
          <mxGeometry x="16" y="110" width="120" height="60" as="geometry" />
        </mxCell>
        <mxCell id="5pMZYuSauzQ19LcZieeh-39" value="finalDotDur" style="rounded=0;whiteSpace=wrap;html=1;" vertex="1" parent="5pMZYuSauzQ19LcZieeh-34">
          <mxGeometry x="146" y="110" width="120" height="60" as="geometry" />
        </mxCell>
        <mxCell id="5pMZYuSauzQ19LcZieeh-44" value="usableDotsArray" style="swimlane;whiteSpace=wrap;html=1;" vertex="1" parent="1">
          <mxGeometry x="827" y="80" width="310" height="390" as="geometry" />
        </mxCell>
        <mxCell id="5pMZYuSauzQ19LcZieeh-45" value="объект ДОТа" style="swimlane;whiteSpace=wrap;html=1;startSize=23;" vertex="1" parent="5pMZYuSauzQ19LcZieeh-44">
          <mxGeometry x="14" y="40" width="286" height="320" as="geometry" />
        </mxCell>
        <mxCell id="5pMZYuSauzQ19LcZieeh-46" value="сode" style="rounded=0;whiteSpace=wrap;html=1;" vertex="1" parent="5pMZYuSauzQ19LcZieeh-45">
          <mxGeometry x="16" y="40" width="80" height="60" as="geometry" />
        </mxCell>
        <mxCell id="5pMZYuSauzQ19LcZieeh-47" value="affectedChar" style="rounded=0;whiteSpace=wrap;html=1;" vertex="1" parent="5pMZYuSauzQ19LcZieeh-45">
          <mxGeometry x="96" y="40" width="110" height="60" as="geometry" />
        </mxCell>
        <mxCell id="5pMZYuSauzQ19LcZieeh-48" value="type" style="rounded=0;whiteSpace=wrap;html=1;" vertex="1" parent="5pMZYuSauzQ19LcZieeh-45">
          <mxGeometry x="206" y="40" width="60" height="60" as="geometry" />
        </mxCell>
        <mxCell id="5pMZYuSauzQ19LcZieeh-49" value="finalDotDmg" style="rounded=0;whiteSpace=wrap;html=1;" vertex="1" parent="5pMZYuSauzQ19LcZieeh-45">
          <mxGeometry x="16" y="110" width="120" height="60" as="geometry" />
        </mxCell>
        <mxCell id="5pMZYuSauzQ19LcZieeh-50" value="finalDotDur" style="rounded=0;whiteSpace=wrap;html=1;" vertex="1" parent="5pMZYuSauzQ19LcZieeh-45">
          <mxGeometry x="146" y="110" width="120" height="60" as="geometry" />
        </mxCell>
        <mxCell id="5pMZYuSauzQ19LcZieeh-54" value="affectedDamage" style="rounded=0;whiteSpace=wrap;html=1;" vertex="1" parent="5pMZYuSauzQ19LcZieeh-45">
          <mxGeometry x="16" y="170" width="120" height="60" as="geometry" />
        </mxCell>
        <mxCell id="5pMZYuSauzQ19LcZieeh-57" value="count" style="rounded=0;whiteSpace=wrap;html=1;" vertex="1" parent="5pMZYuSauzQ19LcZieeh-45">
          <mxGeometry x="146" y="170" width="120" height="60" as="geometry" />
        </mxCell>
        <mxCell id="5pMZYuSauzQ19LcZieeh-61" value="tick" style="rounded=0;whiteSpace=wrap;html=1;" vertex="1" parent="5pMZYuSauzQ19LcZieeh-45">
          <mxGeometry x="16" y="230" width="120" height="60" as="geometry" />
        </mxCell>
        <mxCell id="5pMZYuSauzQ19LcZieeh-53" style="edgeStyle=orthogonalEdgeStyle;rounded=0;orthogonalLoop=1;jettySize=auto;html=1;exitX=0.5;exitY=0;exitDx=0;exitDy=0;" edge="1" parent="1" source="5pMZYuSauzQ19LcZieeh-51">
          <mxGeometry relative="1" as="geometry">
            <mxPoint x="982" y="570" as="targetPoint" />
          </mxGeometry>
        </mxCell>
        <mxCell id="5pMZYuSauzQ19LcZieeh-51" value="Процесс стрельбы,&lt;br&gt;передача массива в патрони и из патрона в жертву" style="rounded=0;whiteSpace=wrap;html=1;" vertex="1" parent="1">
          <mxGeometry x="827" y="680" width="310" height="210" as="geometry" />
        </mxCell>
        <mxCell id="5pMZYuSauzQ19LcZieeh-60" style="edgeStyle=orthogonalEdgeStyle;rounded=0;orthogonalLoop=1;jettySize=auto;html=1;exitX=0.5;exitY=0;exitDx=0;exitDy=0;entryX=0.5;entryY=1;entryDx=0;entryDy=0;" edge="1" parent="1" source="5pMZYuSauzQ19LcZieeh-56" target="5pMZYuSauzQ19LcZieeh-44">
          <mxGeometry relative="1" as="geometry" />
        </mxCell>
        <mxCell id="5pMZYuSauzQ19LcZieeh-56" value="Обогащение объекта ДОТа" style="rounded=0;whiteSpace=wrap;html=1;" vertex="1" parent="1">
          <mxGeometry x="922" y="510" width="120" height="60" as="geometry" />
        </mxCell>
        <mxCell id="5pMZYuSauzQ19LcZieeh-59" style="edgeStyle=orthogonalEdgeStyle;rounded=0;orthogonalLoop=1;jettySize=auto;html=1;exitX=0;exitY=0.5;exitDx=0;exitDy=0;entryX=1;entryY=0.5;entryDx=0;entryDy=0;" edge="1" parent="1" source="5pMZYuSauzQ19LcZieeh-58" target="5pMZYuSauzQ19LcZieeh-56">
          <mxGeometry relative="1" as="geometry" />
        </mxCell>
        <mxCell id="5pMZYuSauzQ19LcZieeh-58" value="affectedDamage = 0,&lt;div&gt;&amp;nbsp;count = 1&lt;br&gt;tick = 0&lt;/div&gt;" style="shape=process;whiteSpace=wrap;html=1;backgroundOutline=1;" vertex="1" parent="1">
          <mxGeometry x="1100" y="490" width="230" height="100" as="geometry" />
        </mxCell>
        <mxCell id="5pMZYuSauzQ19LcZieeh-68" style="edgeStyle=orthogonalEdgeStyle;rounded=0;orthogonalLoop=1;jettySize=auto;html=1;exitX=0.5;exitY=1;exitDx=0;exitDy=0;entryX=0.5;entryY=0;entryDx=0;entryDy=0;" edge="1" parent="1" source="5pMZYuSauzQ19LcZieeh-62" target="5pMZYuSauzQ19LcZieeh-33">
          <mxGeometry relative="1" as="geometry" />
        </mxCell>
        <mxCell id="5pMZYuSauzQ19LcZieeh-62" value="конструктор объектов наносимых дотов" style="rounded=0;whiteSpace=wrap;html=1;" vertex="1" parent="1">
          <mxGeometry x="230" y="640" width="160" height="60" as="geometry" />
        </mxCell>
        <mxCell id="5pMZYuSauzQ19LcZieeh-67" style="edgeStyle=orthogonalEdgeStyle;rounded=0;orthogonalLoop=1;jettySize=auto;html=1;exitX=0.5;exitY=1;exitDx=0;exitDy=0;entryX=0.5;entryY=0;entryDx=0;entryDy=0;" edge="1" parent="1" source="5pMZYuSauzQ19LcZieeh-64" target="5pMZYuSauzQ19LcZieeh-62">
          <mxGeometry relative="1" as="geometry" />
        </mxCell>
        <mxCell id="5pMZYuSauzQ19LcZieeh-64" value="Метод формирования массива объектов имеющихся дотов usableDotsArray" style="rounded=0;whiteSpace=wrap;html=1;" vertex="1" parent="1">
          <mxGeometry x="190" y="525" width="240" height="60" as="geometry" />
        </mxCell>
      </root>
    </mxGraphModel>
  </diagram>
</mxfile>
